<?xml version="1.0" encoding="utf-8"?>
<!-- Generator: Adobe Illustrator 18.1.0, SVG Export Plug-In . SVG Version: 6.00 Build 0)  -->
<!DOCTYPE svg PUBLIC "-//W3C//DTD SVG 1.1//EN" "http://www.w3.org/Graphics/SVG/1.1/DTD/svg11.dtd">
<svg version="1.1" id="Camada_1" xmlns="http://www.w3.org/2000/svg" xmlns:xlink="http://www.w3.org/1999/xlink" x="0px" y="0px"
	 viewBox="0 0 100 100" enable-background="new 0 0 100 100" xml:space="preserve">
<g>
	<path d="M69.7,45c-6.4,0-7.3,6.4-7.3,6.4H76C76,51.4,76.1,45,69.7,45z"/>
	<path d="M38.6,51.4H26.4v11.1h10.8c0.2,0,0.5,0,0.8,0c1.7,0,5-0.5,5-5.4C43,51.4,38.6,51.4,38.6,51.4z"/>
	<path d="M50,0C22.4,0,0,22.4,0,50c0,27.6,22.4,50,50,50c27.6,0,50-22.4,50-50C100,22.4,77.6,0,50,0z M60.5,30.7h17.2v5.1H60.5V30.7
		z M51.8,57.7C51.8,70.4,38.6,70,38.6,70H26.4h-0.4h-9.2V28.3h9.2h0.4h12.1c6.6,0,11.8,3.6,11.8,11.1c0,7.5-6.4,7.9-6.4,7.9
		C52.4,47.3,51.8,57.7,51.8,57.7z M84,57H62.4c0,7.8,7.3,7.3,7.3,7.3c6.9,0,6.7-4.5,6.7-4.5h7.3c0,11.9-14.3,11.1-14.3,11.1
		c-17.1,0-16-15.9-16-15.9s0-16,16-16C86.4,38.9,84,57,84,57z"/>
	<path d="M41.5,40c0-4.3-3-4.3-3-4.3H37H26.4V45h11.4C39.8,45,41.5,44.4,41.5,40z"/>
</g>
</svg>
