<?xml version="1.0" encoding="utf-8"?>
<!-- Generator: Adobe Illustrator 18.1.0, SVG Export Plug-In . SVG Version: 6.00 Build 0)  -->
<!DOCTYPE svg PUBLIC "-//W3C//DTD SVG 1.1//EN" "http://www.w3.org/Graphics/SVG/1.1/DTD/svg11.dtd">
<svg version="1.1" id="Camada_1" xmlns="http://www.w3.org/2000/svg" xmlns:xlink="http://www.w3.org/1999/xlink" x="0px" y="0px"
	 viewBox="0 0 100 100" enable-background="new 0 0 100 100" xml:space="preserve">
<path d="M50,0C22.4,0,0,22.4,0,50c0,27.6,22.4,50,50,50s50-22.4,50-50C100,22.4,77.6,0,50,0z M63.2,49.8h-8.7c0,13.8,0,30.9,0,30.9
	H41.7c0,0,0-16.9,0-30.9h-6.1V38.9h6.1v-7.1c0-5.1,2.4-12.9,13-12.9l9.5,0v10.6c0,0-5.8,0-6.9,0c-1.1,0-2.7,0.6-2.7,3v6.4h9.8
	L63.2,49.8z"/>
</svg>
