<?xml version="1.0" encoding="utf-8"?>
<!-- Generator: Adobe Illustrator 18.1.0, SVG Export Plug-In . SVG Version: 6.00 Build 0)  -->
<!DOCTYPE svg PUBLIC "-//W3C//DTD SVG 1.1//EN" "http://www.w3.org/Graphics/SVG/1.1/DTD/svg11.dtd">
<svg version="1.1" id="Camada_1" xmlns="http://www.w3.org/2000/svg" xmlns:xlink="http://www.w3.org/1999/xlink" x="0px" y="0px"
	 viewBox="0 0 100 100" enable-background="new 0 0 100 100" xml:space="preserve">
<g>
	<polygon points="70.6,39.1 70.6,31 70.6,29.8 69.4,29.8 61.4,29.9 61.5,39.1 	"/>
	<path d="M49.8,60.3c5.3,0,9.6-4.3,9.6-9.6c0-2.1-0.7-4-1.8-5.6c-1.7-2.4-4.6-4-7.8-4c-3.2,0-6,1.6-7.8,4c-1.1,1.6-1.8,3.5-1.8,5.6
		C40.2,56,44.5,60.3,49.8,60.3z"/>
	<path d="M50,0C22.4,0,0,22.4,0,50c0,27.6,22.4,50,50,50c27.6,0,50-22.4,50-50C100,22.4,77.6,0,50,0z M76.9,45.2v22.3
		c0,5.8-4.7,10.5-10.5,10.5H33.1c-5.8,0-10.5-4.7-10.5-10.5V45.2V34.1c0-5.8,4.7-10.5,10.5-10.5h33.4c5.8,0,10.5,4.7,10.5,10.5V45.2
		z"/>
	<path d="M64.6,50.8c0,8.2-6.7,14.9-14.9,14.9c-8.2,0-14.9-6.7-14.9-14.9c0-2,0.4-3.9,1.1-5.6h-8.1v22.3c0,2.9,2.3,5.2,5.2,5.2h33.4
		c2.9,0,5.2-2.3,5.2-5.2V45.2h-8.1C64.2,46.9,64.6,48.8,64.6,50.8z"/>
</g>
</svg>
