<?xml version="1.0" encoding="utf-8"?>
<!-- Generator: Adobe Illustrator 18.1.0, SVG Export Plug-In . SVG Version: 6.00 Build 0)  -->
<!DOCTYPE svg PUBLIC "-//W3C//DTD SVG 1.1//EN" "http://www.w3.org/Graphics/SVG/1.1/DTD/svg11.dtd">
<svg version="1.1" id="Camada_1" xmlns="http://www.w3.org/2000/svg" xmlns:xlink="http://www.w3.org/1999/xlink" x="0px" y="0px"
	 viewBox="0 0 100 100" enable-background="new 0 0 100 100" xml:space="preserve">
<g>
	<path d="M50,0C22.4,0,0,22.4,0,50c0,27.6,22.4,50,50,50c27.6,0,50-22.4,50-50C100,22.4,77.6,0,50,0z M77.8,74.3c0,2.2-1.8,4-4.1,4
		H26.2c-2.3,0-4.1-1.8-4.1-4V26.2c0-2.2,1.8-4,4.1-4h47.5c2.3,0,4.1,1.8,4.1,4V74.3z"/>
	<path d="M59.7,43.2c-4.5,0-6.5,2.5-7.6,4.2v0.1H52c0,0,0-0.1,0.1-0.1v-3.6h-8.4c0.1,2.4,0,25.3,0,25.3h8.4V55
		c0-0.8,0.1-1.5,0.3-2.1c0.6-1.5,2-3.1,4.3-3.1c3.1,0,4.3,2.3,4.3,5.7v13.6h8.4V54.6C69.4,46.8,65.2,43.2,59.7,43.2z"/>
	<path d="M34.8,31.6c-2.9,0-4.8,1.9-4.8,4.4c0,2.4,1.8,4.4,4.7,4.4h0.1c2.9,0,4.8-2,4.8-4.4C39.5,33.5,37.7,31.6,34.8,31.6z"/>
	<rect x="30.5" y="43.8" width="8.4" height="25.3"/>
</g>
</svg>
