<?xml version="1.0" encoding="utf-8"?>
<!-- Generator: Adobe Illustrator 18.1.0, SVG Export Plug-In . SVG Version: 6.00 Build 0)  -->
<!DOCTYPE svg PUBLIC "-//W3C//DTD SVG 1.1//EN" "http://www.w3.org/Graphics/SVG/1.1/DTD/svg11.dtd">
<svg version="1.1" id="Camada_1" xmlns="http://www.w3.org/2000/svg" xmlns:xlink="http://www.w3.org/1999/xlink" x="0px" y="0px"
	 viewBox="0 0 100 100" enable-background="new 0 0 100 100" xml:space="preserve">
<g>
	<path d="M50,0C22.4,0,0,22.4,0,50c0,20.5,12.3,38.1,29.9,45.8c-0.1-3.5,0-7.7,0.9-11.5c1-4.1,6.4-27.2,6.4-27.2s-1.6-3.2-1.6-7.9
		c0-7.4,4.3-12.9,9.6-12.9c4.5,0,6.7,3.4,6.7,7.5c0,4.6-2.9,11.4-4.4,17.7c-1.3,5.3,2.7,9.6,7.9,9.6c9.5,0,15.9-12.2,15.9-26.6
		c0-11-7.4-19.2-20.8-19.2c-15.2,0-24.6,11.3-24.6,23.9c0,4.4,1.3,7.4,3.3,9.8c0.9,1.1,1.1,1.5,0.7,2.8c-0.2,0.9-0.8,3.1-1,4
		c-0.3,1.3-1.4,1.7-2.5,1.3c-7-2.9-10.2-10.5-10.2-19.1c0-14.2,12-31.2,35.7-31.2c19.1,0,31.7,13.8,31.7,28.6
		c0,19.6-10.9,34.3-27,34.3c-5.4,0-10.5-2.9-12.2-6.2c0,0-2.9,11.5-3.5,13.7c-1.1,3.9-3.1,7.7-5,10.7c4.5,1.3,9.2,2.1,14.2,2.1
		c27.6,0,50-22.4,50-50C100,22.4,77.6,0,50,0z"/>
</g>
</svg>
