<?xml version="1.0" encoding="utf-8"?>
<!-- Generator: Adobe Illustrator 18.1.0, SVG Export Plug-In . SVG Version: 6.00 Build 0)  -->
<!DOCTYPE svg PUBLIC "-//W3C//DTD SVG 1.1//EN" "http://www.w3.org/Graphics/SVG/1.1/DTD/svg11.dtd">
<svg version="1.1" id="Camada_1" xmlns="http://www.w3.org/2000/svg" xmlns:xlink="http://www.w3.org/1999/xlink" x="0px" y="0px"
	 viewBox="0 0 100 100" enable-background="new 0 0 100 100" xml:space="preserve">
<path d="M50,0C22.4,0,0,22.4,0,50c0,27.6,22.4,50,50,50c27.6,0,50-22.4,50-50C100,22.4,77.6,0,50,0z M16.5,56.8
	c0,0.2-0.1,0.3-0.3,0.3c-0.1,0-0.3-0.1-0.3-0.3L15.4,53l0.5-3.9c0-0.2,0.1-0.3,0.3-0.3c0.1,0,0.3,0.1,0.3,0.3l0.6,3.9L16.5,56.8z
	 M19.1,59.1c0,0.2-0.1,0.3-0.3,0.3c-0.1,0-0.3-0.1-0.3-0.3L17.8,53l0.7-6.3c0-0.2,0.1-0.3,0.3-0.3c0.1,0,0.3,0.1,0.3,0.3l0.8,6.3
	L19.1,59.1z M21.9,60.2c0,0.2-0.2,0.3-0.4,0.3c-0.2,0-0.3-0.1-0.4-0.3L20.6,53l0.7-7.5c0-0.2,0.2-0.3,0.4-0.3c0.2,0,0.3,0.1,0.4,0.3
	l0.7,7.5L21.9,60.2z M24.7,60.4c0,0.2-0.2,0.4-0.4,0.4c-0.2,0-0.4-0.2-0.4-0.4L23.3,53l0.6-7.7c0-0.2,0.2-0.4,0.4-0.4
	c0.2,0,0.4,0.2,0.4,0.4l0.7,7.7L24.7,60.4z M27.6,60.4c0,0.3-0.2,0.5-0.5,0.5c-0.3,0-0.5-0.2-0.5-0.5L26.1,53l0.6-7.1
	c0-0.3,0.2-0.5,0.5-0.5c0.2,0,0.5,0.2,0.5,0.5l0.7,7.1L27.6,60.4z M30.5,60.4L30.5,60.4c0,0.3-0.2,0.5-0.5,0.5
	c-0.3,0-0.5-0.2-0.5-0.5L28.9,53l0.5-11.6c0-0.3,0.2-0.5,0.5-0.5c0.3,0,0.5,0.2,0.5,0.5L31.1,53L30.5,60.4z M33.4,60.4L33.4,60.4
	c0,0.3-0.3,0.6-0.6,0.6c-0.3,0-0.6-0.3-0.6-0.6L31.7,53l0.5-14.2c0-0.3,0.3-0.6,0.6-0.6c0.3,0,0.6,0.3,0.6,0.6L34,53L33.4,60.4z
	 M36.3,60.3L36.3,60.3c0,0.4-0.3,0.6-0.6,0.6c-0.4,0-0.6-0.3-0.7-0.6L34.5,53L35,37.6c0-0.4,0.3-0.6,0.7-0.6c0.3,0,0.6,0.3,0.6,0.6
	L36.8,53L36.3,60.3z M39.3,60.3L39.3,60.3L39.3,60.3c0,0.4-0.3,0.7-0.7,0.7c-0.4,0-0.7-0.3-0.7-0.7L37.4,53L37.8,37
	c0-0.4,0.3-0.7,0.7-0.7c0.4,0,0.7,0.3,0.7,0.7L39.8,53L39.3,60.3C39.3,60.3,39.3,60.3,39.3,60.3z M42.2,60.2L42.2,60.2
	c0,0.4-0.3,0.8-0.8,0.8c-0.4,0-0.8-0.3-0.8-0.8L40.3,53l0.4-15.5c0-0.4,0.3-0.8,0.8-0.8c0.4,0,0.8,0.3,0.8,0.8L42.7,53L42.2,60.2z
	 M45.2,60.2L45.2,60.2c0,0.5-0.4,0.8-0.8,0.8c-0.5,0-0.8-0.4-0.8-0.8L43.2,53l0.4-15c0-0.5,0.4-0.8,0.8-0.8c0.5,0,0.8,0.4,0.8,0.8
	l0.4,15L45.2,60.2z M48.2,60.1L48.2,60.1c0,0.5-0.4,0.9-0.9,0.9c-0.5,0-0.9-0.4-0.9-0.9c0,0-0.3-7.1-0.3-7.2l0.3-17.8
	c0-0.5,0.4-0.9,0.9-0.9c0.5,0,0.9,0.4,0.9,0.9L48.6,53L48.2,60.1z M51.2,60L51.2,60c0,0.5-0.4,0.9-0.9,0.9c-0.5,0-0.9-0.4-0.9-0.9
	L49,53l0.4-19.4c0-0.5,0.4-0.9,0.9-0.9c0.5,0,0.9,0.4,0.9,0.9L51.7,53L51.2,60z M76.9,61C76.7,61,53,61,53,61
	c-0.5-0.1-0.9-0.5-0.9-1V32.6c0-0.5,0.2-0.8,0.8-1c1.7-0.6,3.6-1,5.5-1c7.9,0,14.5,6.1,15.1,13.9c1-0.4,2.2-0.7,3.3-0.7
	c4.8,0,8.6,3.9,8.6,8.6C85.5,57.2,81.6,61,76.9,61z"/>
</svg>
