<?xml version="1.0" encoding="utf-8"?>
<!-- Generator: Adobe Illustrator 18.1.0, SVG Export Plug-In . SVG Version: 6.00 Build 0)  -->
<!DOCTYPE svg PUBLIC "-//W3C//DTD SVG 1.1//EN" "http://www.w3.org/Graphics/SVG/1.1/DTD/svg11.dtd">
<svg version="1.1" id="Camada_1" xmlns="http://www.w3.org/2000/svg" xmlns:xlink="http://www.w3.org/1999/xlink" x="0px" y="0px"
	 viewBox="0 0 100 100" enable-background="new 0 0 100 100" xml:space="preserve">
<path d="M50,0C22.4,0,0,22.4,0,50c0,27.6,22.4,50,50,50s50-22.4,50-50C100,22.4,77.6,0,50,0z M67.4,77.7c-2.7,1.3-5.1,2.2-7.3,2.7
	c-2.2,0.5-4.5,0.8-7.1,0.8c-2.9,0-4.6-0.4-6.8-1.1c-2.2-0.7-4.1-1.8-5.7-3.1c-1.6-1.3-2.6-2.8-3.3-4.3c-0.6-1.5-0.9-3.7-0.9-6.6
	V43.9h-8.6V35c2.5-0.8,5.3-2,7.1-3.5c1.8-1.5,3.2-3.3,4.2-5.4c1.1-2.1,1.8-4.8,2.2-8h9v14.6H65v11.2H50.4v16.1c0,3.7,0,5.8,0.3,6.8
	c0.4,1,1.3,2.1,2.4,2.7c1.4,0.8,3,1.3,4.8,1.3c3.2,0,6.4-1,9.5-3.1V77.7z"/>
</svg>
