<?xml version="1.0" encoding="utf-8"?>
<!-- Generator: Adobe Illustrator 18.1.0, SVG Export Plug-In . SVG Version: 6.00 Build 0)  -->
<!DOCTYPE svg PUBLIC "-//W3C//DTD SVG 1.1//EN" "http://www.w3.org/Graphics/SVG/1.1/DTD/svg11.dtd">
<svg version="1.1" id="Camada_1" xmlns="http://www.w3.org/2000/svg" xmlns:xlink="http://www.w3.org/1999/xlink" x="0px" y="0px"
	 viewBox="0 0 100 100" enable-background="new 0 0 100 100" xml:space="preserve">
<path d="M50,0C22.4,0,0,22.4,0,50c0,27.6,22.4,50,50,50c27.6,0,50-22.4,50-50C100,22.4,77.6,0,50,0z M75.2,39.9c0,0.5,0,1.1,0,1.6
	c0,16.7-12.7,35.9-35.9,35.9c-7.1,0-13.7-2.1-19.3-5.7c1,0.1,2,0.2,3,0.2c5.9,0,11.3-2,15.7-5.4c-5.5-0.1-10.2-3.7-11.8-8.8
	c0.8,0.1,1.6,0.2,2.4,0.2c1.2,0,2.3-0.2,3.3-0.4c-5.8-1.2-10.1-6.3-10.1-12.4c0-0.1,0-0.1,0-0.2c1.7,0.9,3.6,1.5,5.7,1.6
	c-3.4-2.3-5.6-6.1-5.6-10.5c0-2.3,0.6-4.5,1.7-6.3c6.2,7.6,15.5,12.6,26,13.2C50.1,42,50,41.1,50,40.1c0-7,5.6-12.6,12.6-12.6
	c3.6,0,6.9,1.5,9.2,4c2.9-0.6,5.6-1.6,8-3.1c-0.9,2.9-2.9,5.4-5.5,7c2.6-0.3,5-1,7.2-2C79.8,35.9,77.7,38.1,75.2,39.9z"/>
</svg>
