<?xml version="1.0" encoding="utf-8"?>
<!-- Generator: Adobe Illustrator 18.1.0, SVG Export Plug-In . SVG Version: 6.00 Build 0)  -->
<!DOCTYPE svg PUBLIC "-//W3C//DTD SVG 1.1//EN" "http://www.w3.org/Graphics/SVG/1.1/DTD/svg11.dtd">
<svg version="1.1" id="Camada_1" xmlns="http://www.w3.org/2000/svg" xmlns:xlink="http://www.w3.org/1999/xlink" x="0px" y="0px"
	 viewBox="0 0 100 100" enable-background="new 0 0 100 100" xml:space="preserve">
<g>
	<polygon points="28.7,54.2 32.3,54.2 32.3,72.2 35.8,72.2 35.8,54.2 39.4,54.2 39.4,51.1 28.7,51.1 	"/>
	<path d="M50.1,39.3c0.5,0,0.9-0.1,1.1-0.4c0.3-0.3,0.4-0.6,0.4-1.1v-9.3c0-0.4-0.1-0.7-0.4-0.9c-0.3-0.2-0.7-0.3-1.1-0.3
		c-0.4,0-0.8,0.1-1,0.3c-0.3,0.2-0.4,0.5-0.4,0.9v9.3c0,0.5,0.1,0.8,0.4,1.1C49.3,39.1,49.7,39.3,50.1,39.3z"/>
	<path d="M57.9,56.5c-0.5,0-1,0.1-1.4,0.4c-0.5,0.2-0.9,0.6-1.3,1.1v-6.8H52v21h3.1V71c0.4,0.5,0.9,0.8,1.3,1.1
		c0.5,0.2,1,0.3,1.6,0.3c0.9,0,1.6-0.3,2.1-0.9c0.5-0.6,0.7-1.4,0.7-2.5v-8.6c0-1.3-0.3-2.2-0.8-2.9C59.6,56.8,58.8,56.5,57.9,56.5z
		 M57.7,68.6c0,0.5-0.1,0.9-0.3,1.1C57.2,69.9,57,70,56.6,70c-0.3,0-0.5-0.1-0.7-0.2c-0.2-0.1-0.5-0.3-0.7-0.5v-9.7
		c0.2-0.2,0.4-0.4,0.6-0.5c0.2-0.1,0.4-0.2,0.7-0.2c0.4,0,0.7,0.1,1,0.4c0.2,0.3,0.3,0.7,0.3,1.2V68.6z"/>
	<path d="M46.5,68.5c-0.3,0.3-0.6,0.6-1,0.8c-0.3,0.2-0.6,0.3-0.9,0.3c-0.3,0-0.5-0.1-0.6-0.2c-0.1-0.2-0.2-0.4-0.2-0.8V56.7h-3.1
		v13c0,0.9,0.2,1.6,0.5,2.1c0.4,0.5,0.9,0.7,1.6,0.7c0.6,0,1.2-0.2,1.8-0.5c0.6-0.3,1.2-0.8,1.8-1.4v1.7h3.1V56.7h-3.1V68.5z"/>
	<path d="M50,0C22.4,0,0,22.4,0,50c0,27.6,22.4,50,50,50s50-22.4,50-50C100,22.4,77.6,0,50,0z M58.1,24.7h3.5v13.1
		c0,0.4,0.1,0.7,0.2,0.9c0.1,0.2,0.4,0.3,0.7,0.3c0.3,0,0.6-0.1,1-0.4c0.4-0.2,0.8-0.6,1.1-0.9v-13h3.5v17.1h-3.5v-1.9
		c-0.6,0.7-1.3,1.2-2,1.6c-0.7,0.4-1.4,0.5-2,0.5c-0.8,0-1.4-0.3-1.8-0.8c-0.4-0.5-0.6-1.3-0.6-2.3V24.7z M45.1,28.6
		c0-1.3,0.5-2.4,1.4-3.2c0.9-0.8,2.2-1.2,3.8-1.2c1.4,0,2.6,0.4,3.6,1.2c0.9,0.8,1.4,1.9,1.4,3.2v8.8c0,1.5-0.5,2.6-1.4,3.4
		c-0.9,0.8-2.2,1.2-3.7,1.2c-1.5,0-2.8-0.4-3.7-1.3c-0.9-0.9-1.4-2-1.4-3.5V28.6z M35.6,18.6l2.6,9.3h0.2l2.4-9.3h4l-4.6,13.6v9.6
		h-3.9v-9.2l-4.7-14H35.6z M81.4,67.4c0,6.2-5,11.2-11.2,11.2H31.2c-6.2,0-11.2-5-11.2-11.2v-9c0-6.2,5-11.2,11.2-11.2h38.9
		c6.2,0,11.2,5,11.2,11.2V67.4z"/>
	<path d="M67.2,56.3c-1.4,0-2.5,0.4-3.4,1.3c-0.9,0.8-1.3,1.9-1.3,3.3v7c0,1.5,0.4,2.7,1.2,3.5c0.8,0.9,1.9,1.3,3.3,1.3
		c1.5,0,2.7-0.4,3.5-1.2c0.8-0.8,1.2-2,1.2-3.6V67h-3.2v0.7c0,0.9-0.1,1.5-0.3,1.8c-0.2,0.3-0.6,0.4-1.1,0.4c-0.5,0-0.8-0.2-1.1-0.5
		c-0.2-0.3-0.3-0.9-0.3-1.7v-2.9h5.9v-4c0-1.5-0.4-2.6-1.1-3.4C69.7,56.7,68.6,56.3,67.2,56.3z M68.4,62.4h-2.7v-1.6
		c0-0.7,0.1-1.1,0.3-1.4c0.2-0.3,0.6-0.4,1.1-0.4c0.5,0,0.8,0.1,1,0.4c0.2,0.3,0.3,0.7,0.3,1.4V62.4z"/>
</g>
</svg>
